<svg xmlns="http://www.w3.org/2000/svg" xmlns:xlink="http://www.w3.org/1999/xlink" width="700" height="493" viewBox="0 0 700 493"><defs><linearGradient id="a" x1="0.99" y1="0.717" x2="0.025" y2="0.29" gradientUnits="objectBoundingBox"><stop offset="0" stop-color="#151515"/><stop offset="1" stop-color="#3d3d3d"/></linearGradient><clipPath id="b"><rect width="547" height="349" fill="none"/></clipPath></defs><g transform="translate(-304 -391)"><g transform="translate(469 552)" fill="#5267df" stroke="#707070" stroke-width="1"><path d="M166,0H535a0,0,0,0,1,0,0V332a0,0,0,0,1,0,0H166A166,166,0,0,1,0,166v0A166,166,0,0,1,166,0Z" stroke="none"/><path d="M166,.5H534.085a.415.415,0,0,1,.415.415v330.17a.415.415,0,0,1-.415.415H166A165.5,165.5,0,0,1,.5,166v0A165.5,165.5,0,0,1,166,.5Z" fill="none"/></g><g transform="translate(303.5 390.5)"><g transform="translate(0.5 0.5)"><rect width="578" height="385" rx="26"/><rect width="578" height="385" rx="26" fill="#777"/><path d="M25,0H549.23a25,25,0,0,1,25,25V356.865a25,25,0,0,1-25,25H25a25,25,0,0,1-25-25V25A25,25,0,0,1,25,0Z" transform="translate(2 2)" fill="url(#a)"/><g transform="translate(17.5 16.303)" clip-path="url(#b)" style="isolation:isolate"><g transform="translate(3.53)"><rect width="471.463" height="353.756" rx="5" transform="translate(33)" fill="#2a2a2a" opacity="0.1"/><rect width="536" height="346" rx="8" transform="translate(0 3)" fill="#e8eaf6"/><path d="M-3.53,3.2h547v59h-547Z" fill="#5267df" fill-rule="evenodd"/><g transform="translate(22.47 17.197)"><circle cx="16" cy="16" r="16" fill="#fff" opacity="0.245"/><circle cx="16" cy="16" r="16" transform="translate(461)" fill="#fff" opacity="0.104"/><g transform="translate(47 6)"><rect width="120" height="6" rx="3" fill="#fff" opacity="0.75"/><rect width="64" height="6" rx="3" transform="translate(0 14)" fill="#fff" opacity="0.25"/></g></g><g transform="translate(57 96)"><rect width="261" height="316" rx="8" fill="#fff"/><rect width="128" height="316" rx="8" transform="translate(295)" fill="#fff"/><rect width="120" height="6" rx="3" transform="translate(78.47 38.197)" fill="#242a45" opacity="0.5"/></g></g></g></g><g transform="translate(110 135)"><circle cx="16" cy="16" r="16" transform="translate(0 10)" fill="#f98e5d"/><rect width="88" height="6" rx="3" transform="translate(284)" fill="#242a45" opacity="0.25"/><rect width="88" height="6" rx="3" transform="translate(284 20)" fill="#242a45" opacity="0.25"/><rect width="88" height="6" rx="3" transform="translate(284 40)" fill="#242a45" opacity="0.25"/><rect width="88" height="6" rx="3" transform="translate(284 60)" fill="#242a45" opacity="0.25"/><rect width="88" height="6" rx="3" transform="translate(284 94)" fill="#242a45" opacity="0.25"/><rect width="88" height="6" rx="3" transform="translate(284 114)" fill="#242a45" opacity="0.25"/><rect width="88" height="6" rx="3" transform="translate(284 134)" fill="#242a45" opacity="0.25"/><rect width="64" height="6" rx="3" transform="translate(47 30)" fill="#242a45" opacity="0.25"/></g><g transform="translate(110 201)"><circle cx="16" cy="16" r="16" fill="#6ac6d6"/><rect width="120" height="6" rx="3" transform="translate(47 6)" fill="#242a45" opacity="0.5"/><rect width="64" height="6" rx="3" transform="translate(47 20)" fill="#242a45" opacity="0.25"/></g><g transform="translate(110 257)"><circle cx="16" cy="16" r="16" fill="#a47ed4"/><rect width="120" height="6" rx="3" transform="translate(47 6)" fill="#242a45" opacity="0.5"/><rect width="64" height="6" rx="3" transform="translate(47 20)" fill="#242a45" opacity="0.25"/></g><g transform="translate(110 313)"><circle cx="16" cy="16" r="16" fill="#ec7878"/><rect width="120" height="6" rx="3" transform="translate(47 6)" fill="#242a45" opacity="0.5"/><rect width="64" height="6" rx="3" transform="translate(47 20)" fill="#242a45" opacity="0.25"/></g></g></g></svg>